HIERARCHY
ROOT Hips
{
  OFFSET 0 0 0
  CHANNELS 6 Xposition Yposition Zposition Zrotation Xrotation Yrotation
  JOINT LeftUpLeg
  {
    OFFSET 4.06525 -3.90732 0.41711
    CHANNELS 3 Zrotation Xrotation Yrotation
    JOINT LeftLeg
    {
      OFFSET 0.00023 -18.4821 0.00367
      CHANNELS 3 Zrotation Xrotation Yrotation
      JOINT LeftFoot
      {
        OFFSET -0.00172 -15.2898 -0.02629
        CHANNELS 3 Zrotation Xrotation Yrotation
        JOINT LeftToeBase
        {
          OFFSET 0.36743 -3.19131 5.54287
          CHANNELS 3 Zrotation Xrotation Yrotation
          JOINT LeftToeBase2
          {
            OFFSET 0.08751 0.04849 1.36758
            CHANNELS 3 Zrotation Xrotation Yrotation
            JOINT LeftToeBase3
            {
              OFFSET 0.07484 0.06785 1.16707
            }
          }
        }
      }
    }
  }
  JOINT RightUpLeg
  {
    OFFSET -4.06526 -3.90731 0.41712
    CHANNELS 3 Zrotation Xrotation Yrotation
    JOINT RightLeg
    {
      OFFSET -0.00029 -18.4821 0.0044
      CHANNELS 3 Zrotation Xrotation Yrotation
      JOINT RightFoot
      {
        OFFSET 0.0016 -15.2898 -0.02569
        CHANNELS 3 Zrotation Xrotation Yrotation
        JOINT RightToeBase
        {
          OFFSET -0.3542 -3.19109 5.54386
          CHANNELS 3 Zrotation Xrotation Yrotation
          JOINT RightToeBase2
          {
            OFFSET -0.08424 0.04854 1.36778
            CHANNELS 3 Zrotation Xrotation Yrotation
            JOINT RightToeBase3
            {
              OFFSET -0.07205 0.0679 1.16725
            }
          }
        }
      }
    }
  }
  JOINT Spine
  {
    OFFSET 1e-005 4.46517 -0.10224
    CHANNELS 3 Zrotation Xrotation Yrotation
    JOINT Spine1
    {
      OFFSET 1e-005 4.46212 -0.1824
      CHANNELS 3 Zrotation Xrotation Yrotation
      JOINT Spine2
      {
        OFFSET 0 4.37937 -0.881
        CHANNELS 3 Zrotation Xrotation Yrotation
        JOINT Spine3
        {
          OFFSET 1e-005 4.68286 0.21414
          CHANNELS 3 Zrotation Xrotation Yrotation
          JOINT Neck
          {
            OFFSET 0 1.76964 0.82454
            CHANNELS 3 Zrotation Xrotation Yrotation
            JOINT Head
            {
              OFFSET 0 1.6961 0.93145
              CHANNELS 3 Zrotation Xrotation Yrotation
              JOINT Head_End
              {
                OFFSET 1e-005 7.8375 1.52603
              }
            }
          }
          JOINT LeftShoulder
          {
            OFFSET 1.19381 -0.75881 -0.02768
            CHANNELS 3 Zrotation Xrotation Yrotation
            JOINT LeftArm
            {
              OFFSET 5.18779 -2e-005 1e-005
              CHANNELS 3 Zrotation Xrotation Yrotation
              JOINT LeftForeArm
              {
                OFFSET 12.7364 -4e-005 2e-005
                CHANNELS 3 Zrotation Xrotation Yrotation
                JOINT LeftHand
                {
                  OFFSET 9.21452 -2e-005 1e-005
                  CHANNELS 3 Zrotation Xrotation Yrotation
                }
              }
            }
          }
          JOINT RightShoulder
          {
            OFFSET -1.19381 -0.75881 -0.02767
            CHANNELS 3 Zrotation Xrotation Yrotation
            JOINT RightArm
            {
              OFFSET -5.18779 1e-005 -1e-005
              CHANNELS 3 Zrotation Xrotation Yrotation
              JOINT RightForeArm
              {
                OFFSET -12.7364 3e-005 -2e-005
                CHANNELS 3 Zrotation Xrotation Yrotation
                JOINT RightHand
                {
                  OFFSET -9.21452 2e-005 -1e-005
                  CHANNELS 3 Zrotation Xrotation Yrotation
                }
              }
            }
          }
        }
      }
    }
  }
}
MOTION
Frames: 8
Frame Time: 	0.0166667
1.88133 41.3262 14.1735 0.744733 2.18649 7.5217 -0.738059 5.05578 5.86331  0.00180251 11.1396 0.0414308  0.296313 -17.6848 -14.3608  3.76697e-014 -1.29381e-011 -1.02101e-010  -0 0 -0   -4.12093 -26.9572 -5.54164  0.000416636 50.8299 -0.0561066  5.65718 -10.0942 -10.2494  -6.99662e-012 -1.7531e-011 -9.24301e-011  -0 0 -0   -2.62194 3.05369 -1.73685  -1.19524 3.11233 -1.08812  -0.898137 3.36222 -1.23459  -1.69238 6.43392 -2.09263  1.06197 -6.24371 7.89186  1.86562 -21.0909 8.28558   -2.96409 2.63583 -10.4436  -56.4515 11.9504 -9.88182  1.57088e-011 1.54399e-011 -31.0861  -3.34457 6.38991 3.51676  7.16652 2.81169 6.62515  69.435 17.19 -1.20682  5.39639e-011 -1.219e-010 16.7377  1.98247 -12.8419 0.874565 
1.90967 41.2184 15.0108 0.820455 2.23986 8.30424 -0.665972 7.08264 5.51897  0.00496268 9.45905 0.0380138  0.0373258 -17.8527 -14.7905  3.76697e-014 -1.29381e-011 -1.02101e-010  -0 0 -0   -3.79738 -27.3084 -4.26657  -0.000105827 44.643 -0.0556804  5.93721 -10.1257 -11.5063  -6.99662e-012 -1.7531e-011 -9.24301e-011  -0 0 -0   -2.84951 3.02317 -1.92193  -1.22927 3.10377 -1.20041  -0.888402 3.35441 -1.34558  -1.62914 6.41661 -2.2907  1.42825 -6.3221 7.85668  1.70479 -21.1875 8.27236   -2.62156 2.57947 -10.441  -56.0871 11.4042 -10.5324  1.60185e-011 1.52489e-011 -32.2425  -2.95365 6.14145 3.20953  7.54629 2.84181 6.45917  69.6721 16.3709 -1.75652  5.35384e-011 -1.22027e-010 16.5378  1.33158 -13.0171 0.932351 
1.93751 41.0824 15.8656 1.02402 2.33316 9.14058 -0.674549 9.05349 5.17047  0.00781652 7.89781 0.0310147  -0.186466 -18.0347 -15.2604  3.76697e-014 -1.29381e-011 -1.02101e-010  -0 0 -0   -3.79013 -27.5086 -2.95751  -8.83281e-005 38.3109 -0.0558352  6.10571 -10.0299 -12.9277  -6.99662e-012 -1.7531e-011 -9.24301e-011  -0 0 -0   -3.13049 2.97668 -2.11568  -1.28119 3.09275 -1.31422  -0.892389 3.35204 -1.46069  -1.58946 6.36241 -2.4841  1.79736 -6.38938 7.79475  1.49917 -21.3166 8.24056   -2.26624 2.52574 -10.4725  -55.8274 10.8852 -11.0747  1.63195e-011 1.50548e-011 -33.3808  -2.40618 5.883 2.89116  7.91327 2.86022 6.25094  69.9119 15.6239 -2.23899  5.28612e-011 -1.22226e-010 16.2201  1.02299 -12.942 0.964922 
1.96564 40.9097 16.742 1.42298 2.51379 10.0723 -0.833332 10.8886 4.80766  0.00945625 6.57002 0.0262213  -0.351447 -18.3019 -15.8037  3.76697e-014 -1.29381e-011 -1.02101e-010  -0 0 -0   -4.31047 -27.7164 -1.82389  -8.12684e-005 32.2021 -0.0550735  6.0033 -9.98647 -14.3763  -6.99662e-012 -1.7531e-011 -9.24301e-011  -0 0 -0   -3.51113 2.87184 -2.3364  -1.35896 3.07678 -1.4374  -0.918363 3.37846 -1.58882  -1.59719 6.24097 -2.67249  2.20365 -6.39388 7.68755  1.21807 -21.4936 8.20276   -1.87095 2.46681 -10.5689  -55.6906 10.4326 -11.4819  1.65959e-011 1.4869e-011 -34.4392  -1.6226 5.6929 2.49215  8.30327 2.86335 5.9671  70.1306 14.9432 -2.66071  5.18839e-011 -1.22506e-010 15.7625  1.27547 -12.6723 0.998522 
1.99678 40.7155 17.6307 1.89491 2.71949 10.9676 -1.03448 12.6177 4.5141  0.00987796 5.50095 0.0262015  -0.476481 -18.6213 -16.387  3.76697e-014 -1.29381e-011 -1.02101e-010  -0 0 -0   -5.1087 -28.0019 -0.943285  0.00284417 26.6784 -0.0543792  5.73583 -10.071 -15.5421  -6.99662e-012 -1.7531e-011 -9.24301e-011  -0 0 -0   -3.88696 2.78496 -2.51461  -1.45753 3.04945 -1.54416  -0.967186 3.37562 -1.70476  -1.64272 6.12229 -2.84979  2.59792 -6.4283 7.56101  0.930538 -21.6565 8.12448   -1.48688 2.40444 -10.7027  -55.6178 10.0185 -11.7955  1.68561e-011 1.46871e-011 -35.4481  -0.776298 5.51439 2.09293  8.71302 2.8562 5.64358  70.3053 14.3132 -3.01242  5.07304e-011 -1.22826e-010 15.2237  1.91964 -12.2899 0.997643 
2.03303 40.5188 18.5152 2.34299 2.89323 11.678 -1.19879 14.2892 4.42829  0.00962152 4.66266 0.0283112  -0.571575 -18.9345 -16.9892  3.76697e-014 -1.29381e-011 -1.02101e-010  -0 0 -0   -6.00564 -28.4624 -0.4154  0.00315179 22.0877 -0.0542728  5.35801 -10.3823 -16.0615  -6.99662e-012 -1.7531e-011 -9.24301e-011  -0 0 -0   -4.12761 2.83174 -2.56806  -1.58301 2.99594 -1.60001  -1.05154 3.24706 -1.77737  -1.73038 6.08465 -3.01573  2.9455 -6.60667 7.4429  0.718647 -21.7151 7.94687   -1.15303 2.33957 -10.8533  -55.5459 9.61169 -12.0363  1.71166e-011 1.44982e-011 -36.4707  -0.0323171 5.35274 1.77502  9.16363 2.8429 5.29151  70.3978 13.6854 -3.27858  4.95147e-011 -1.2315e-010 14.6574  2.93439 -11.8676 0.921863 
2.07207 40.3194 19.4098 2.78575 3.07358 12.3368 -1.32655 15.8743 4.38359  0.00896007 4.02937 0.0304678  -0.628565 -19.1984 -17.6038  3.76697e-014 -1.29381e-011 -1.02101e-010  -0 0 -0   -6.97847 -29.0454 -0.36858  0.00197629 18.5463 -0.0545832  4.89669 -10.8935 -15.9705  -6.99662e-012 -1.7531e-011 -9.24301e-011  -0 0 -0   -4.30984 2.85396 -2.60339  -1.70286 2.93927 -1.63883  -1.13877 3.13183 -1.83264  -1.83176 6.07332 -3.15187  3.23454 -6.81378 7.30916  0.513107 -21.7695 7.75538   -0.878491 2.2668 -11.0299  -55.5063 9.26183 -12.2402  1.73372e-011 1.43325e-011 -37.3474  0.663866 5.10021 1.46578  9.61786 2.82255 4.95199  70.43 13.1517 -3.48448  4.82218e-011 -1.23481e-010 14.0567  4.09371 -11.4888 0.81217 
2.11354 40.1116 20.3281 3.24268 3.3084 13.0835 -1.39633 17.3662 4.21448  0.00794253 3.54305 0.0327888  -0.647391 -19.4136 -18.234  3.76697e-014 -1.29381e-011 -1.02101e-010  -0 0 -0   -8.0681 -29.7636 -1.14599  0.00107647 16.3789 -0.0552568  4.4006 -11.8042 -15.0286  -6.99662e-012 -1.7531e-011 -9.24301e-011  -0 0 -0   -4.49733 2.67992 -2.72962  -1.79018 2.90098 -1.69163  -1.20077 3.1793 -1.89415  -1.92349 6.04755 -3.23701  3.44693 -6.94523 7.12272  0.244134 -21.9213 7.63253   -0.688982 2.17094 -11.2624  -55.4988 9.02689 -12.4865  1.74604e-011 1.42376e-011 -37.8417  1.29912 4.57189 1.07832  10.0784 2.79143 4.66738  70.3887 12.7911 -3.65895  4.68474e-011 -1.23817e-010 13.4198  5.14532 -11.3206 0.685674 
